<svg version="1.1" id="Layer_1" xmlns="http://www.w3.org/2000/svg" xmlns:xlink="http://www.w3.org/1999/xlink" x="0px" y="0px" width="160px" height="25px" fill="" viewBox="0 0 160 25" enable-background="new 0 0 160 25" xml:space="preserve">
  <g>
    <g>
      <path d="M21.852,19.584c1.479-2.008,2.356-4.488,2.356-7.173c0-6.682-5.442-12.123-12.124-12.123
        c-6.686,0-12.123,5.441-12.123,12.123c0,6.687,5.438,12.124,12.123,12.124c2.628,0,5.065-0.84,7.054-2.271l3.038,3.039
        l2.699-2.695L21.852,19.584z M19.109,16.842l-4.479-4.479l-2.694,2.699l4.455,4.456c-1.259,0.763-2.732,1.201-4.307,1.201
        c-4.583,0-8.308-3.725-8.308-8.308c0-4.579,3.725-8.308,8.308-8.308c4.578,0,8.308,3.729,8.308,8.308
        C20.392,14.037,19.92,15.559,19.109,16.842z"></path>
    </g>
    <g>
      <polygon points="133.62,0.889 133.62,4.743 126.411,4.743 126.411,24.017 122.507,24.017 122.507,4.743 115.299,4.743 
        115.299,0.889     "></polygon>
    </g>
    <g>
      <path d="M73.351,0.889h-4.688L59.75,24.017h4.091l1.67-4.506h10.992l1.669,4.506h4.093L73.351,0.889z M66.998,15.906l4.011-10.439
        l4.006,10.439H66.998z"></path>
    </g>
    <g>
      <polygon points="160.052,4.743 147.123,20.111 160.052,20.111 160.052,24.017 142.031,24.017 142.031,19.908 155.006,4.743 
        142.932,4.743 142.932,0.927 160.052,0.927     "></polygon>
    </g>
    <g>
      <path d="M52.19,0.889v14.632c0,4.96-4.03,8.995-8.99,8.995s-8.995-4.035-8.995-8.995V0.889h3.901v14.632
        c-0.086,2.856,2.236,5.18,5.094,5.18c2.853,0,5.175-2.323,5.119-5.18V0.889H52.19z"></path>
    </g>
    <g>
      <path d="M102.612,16.184c2.653-1.321,4.47-4.044,4.47-7.183c0-4.239-3.496-8.026-7.849-8.112h-8.564v23.128h3.905v-6.966h3.537
        l8.05,8.156l2.713-2.681L102.612,16.184z M98.949,13.236h-4.375v-8.47h4.375c2.381,0,4.317,1.898,4.317,4.235
        C103.267,11.338,101.33,13.236,98.949,13.236z"></path>
    </g>
  </g>
</svg>