<?xml version="1.0" standalone="no"?>
<!DOCTYPE svg PUBLIC "-//W3C//DTD SVG 1.1//EN" "http://www.w3.org/Graphics/SVG/1.1/DTD/svg11.dtd" >
<svg xmlns="http://www.w3.org/2000/svg">
<metadata></metadata>
<defs>
<font id="adelle_sansregular" horiz-adv-x="1554" >
<font-face units-per-em="2048" ascent="1546" descent="-502" />
<missing-glyph horiz-adv-x="438" />
<glyph unicode="&#xfb01;" horiz-adv-x="1171" d="M33 903v150h155v170q0 171 79 257.5t229 86.5q96 0 168 -31l-7 -145q-71 22 -129 22q-74 0 -113.5 -41t-39.5 -141v-178h639v-1053h-187v903h-452v-903h-187v903h-155zM791 1395q0 64 34.5 98.5t96.5 34.5q63 0 98 -34.5t35 -98.5t-35 -98.5t-98 -34.5q-62 0 -96.5 34.5 t-34.5 98.5z" />
<glyph unicode="&#xfb02;" horiz-adv-x="1171" d="M33 903v150h155v170q0 171 79 257.5t229 86.5q111 0 188 -35l-8 -143q-74 24 -146 24q-75 0 -115 -41t-40 -141v-178h284v-150h-284v-903h-187v903h-155zM827 0v1546h187v-1546h-187z" />
<glyph unicode="&#xfb03;" horiz-adv-x="1810" d="M33 903v150h155v170q0 171 79 257.5t229 86.5q111 0 188 -35l-8 -143q-74 24 -146 24q-75 0 -115 -41t-40 -141v-178h452v170q0 171 79 257.5t229 86.5q96 0 168 -31l-7 -145q-72 22 -129 22q-74 0 -113.5 -41t-39.5 -141v-178h639v-1053h-187v903h-452v-903h-187v903 h-452v-903h-187v903h-155zM1430 1395q0 64 34.5 98.5t96.5 34.5q63 0 98 -34.5t35 -98.5t-35 -98.5t-98 -34.5q-62 0 -96.5 34.5t-34.5 98.5z" />
<glyph unicode="&#xfb04;" horiz-adv-x="1810" d="M33 903v150h155v170q0 171 79 257.5t229 86.5q111 0 188 -35l-8 -143q-74 24 -146 24q-75 0 -115 -41t-40 -141v-178h452v170q0 171 79 257.5t229 86.5q111 0 188 -35l-8 -143q-74 24 -146 24q-75 0 -115 -41t-40 -141v-178h284v-150h-284v-903h-187v903h-452v-903h-187 v903h-155zM1466 0v1546h187v-1546h-187z" />
<glyph horiz-adv-x="2048" />
<glyph horiz-adv-x="2048" />
<glyph unicode="&#xd;" horiz-adv-x="2048" />
<glyph unicode=" "  horiz-adv-x="438" />
<glyph unicode="&#x09;" horiz-adv-x="438" />
<glyph unicode="&#xa0;" horiz-adv-x="438" />
<glyph unicode="!" horiz-adv-x="544" d="M137 106q0 134 137 134q66 0 102 -34t36 -100q0 -64 -36 -97.5t-102 -33.5q-137 0 -137 131zM168 1483h209l-33 -1098h-141z" />
<glyph unicode="&#x22;" horiz-adv-x="739" d="M119 952v531h184v-531h-184zM436 952v531h185v-531h-185z" />
<glyph unicode="#" horiz-adv-x="1243" d="M70 295l32 141h226l47 297h-236l29 144h227l39 268h150l-41 -268h243l39 268h150l-41 -268h235l-26 -144h-230l-43 -297h234l-29 -141h-225l-45 -295h-148l45 295h-247l-45 -295h-148l43 295h-235zM475 436h248l43 297h-244z" />
<glyph unicode="$" horiz-adv-x="1083" d="M61 399l170 35q25 -137 77 -201t169 -75v493q-64 17 -110.5 35t-97 50t-82.5 72t-53 101.5t-21 139.5q0 171 98.5 271.5t259.5 123.5v178h156v-172q309 -28 350 -365l-172 -26q-19 100 -59.5 157.5t-124.5 75.5v-491q67 -18 117.5 -37t100.5 -50.5t82 -72t52 -100.5 t20 -135q0 -169 -99 -271.5t-271 -124.5v-176h-154v174q-83 6 -148 27.5t-121 65t-91.5 119t-47.5 179.5zM297 1073q0 -85 41 -140t139 -91v450q-96 -19 -138 -79t-42 -140zM621 162q188 39 188 227q0 94 -49.5 144.5t-138.5 78.5v-450z" />
<glyph unicode="%" horiz-adv-x="1640" d="M57 1126q0 174 89 278.5t255 104.5t245 -94t79 -262q0 -176 -88.5 -281.5t-251.5 -105.5q-89 0 -154.5 29t-102.5 80.5t-54 113.5t-17 137zM219 1139q0 -115 38.5 -176.5t133.5 -61.5t133.5 62t38.5 182q0 111 -37 171t-131 60q-49 0 -84.5 -19.5t-54.5 -53.5t-28 -74.5 t-9 -89.5zM254 -33l899 1516h166l-897 -1516h-168zM879 336q0 174 89 278.5t255 104.5t244.5 -94t78.5 -263q0 -176 -88.5 -281.5t-251.5 -105.5q-89 0 -154.5 29t-102 81t-53.5 114t-17 137zM1040 348q0 -115 38.5 -176t133.5 -61t133.5 61.5t38.5 181.5q0 112 -37 172 t-130 60q-49 0 -84.5 -19.5t-55 -54t-28.5 -75t-9 -89.5z" />
<glyph unicode="&#x26;" horiz-adv-x="1431" d="M115 381q0 144 68.5 241t207.5 169q-80 148 -80 294q0 149 106 247t269 98q58 0 108 -12.5t97.5 -42t75.5 -87.5t28 -139q0 -234 -307 -365l-74 -32q69 -113 172 -240q86 -110 175 -205q97 135 104 395h166q-3 -308 -152 -497q97 -74 183 -74q44 0 94 21l33 -140 q-60 -35 -148 -35q-80 0 -146.5 27.5t-138.5 81.5q-144 -111 -378 -111q-209 0 -336 113.5t-127 292.5zM301 399q0 -54 18.5 -102.5t55 -87t95.5 -61.5t134 -23q141 0 236 61q-120 115 -236 273q-100 134 -149 213q-74 -45 -114 -109.5t-40 -163.5zM494 1106q0 -113 61 -238 q1 0 36 14.5t36 14.5q106 47 155 106.5t49 137.5q0 63 -40 103t-115 40q-81 0 -131.5 -46.5t-50.5 -131.5z" />
<glyph unicode="'" horiz-adv-x="421" d="M119 952v531h184v-531h-184z" />
<glyph unicode="(" horiz-adv-x="649" d="M111 573q0 458 313 910h192q-153 -239 -232 -456t-79 -449q0 -133 21.5 -255t64.5 -233.5t90 -201.5t115 -201l-190 2q-62 93 -109.5 183t-92 202t-69 239.5t-24.5 259.5z" />
<glyph unicode=")" horiz-adv-x="649" d="M10 1483h193q313 -452 313 -910q0 -132 -24.5 -259.5t-69 -239.5t-92 -202t-109.5 -183l-190 -2q68 111 115 201t90 201.5t64.5 233.5t21.5 255q0 232 -79 448.5t-233 456.5z" />
<glyph unicode="*" horiz-adv-x="964" d="M106 1239l29 88l266 -63l39 282h86l33 -282l262 65l27 -88l-244 -123l162 -246l-70 -55l-217 205l-215 -211l-69 59l159 248z" />
<glyph unicode="+" horiz-adv-x="1167" d="M197 573v170h301v308h170v-308h301v-170h-301v-311h-170v311h-301z" />
<glyph unicode="," horiz-adv-x="446" d="M29 -246l114 463h207l-172 -481z" />
<glyph unicode="-" horiz-adv-x="647" d="M41 514v178h555v-178h-555z" />
<glyph unicode="." horiz-adv-x="462" d="M92 113q0 67 35.5 102t103.5 35t104 -35t36 -102t-36 -102.5t-104 -35.5q-139 0 -139 138z" />
<glyph unicode="/" horiz-adv-x="776" d="M14 -188l576 1734h168l-574 -1734h-170z" />
<glyph unicode="0" horiz-adv-x="1150" d="M84 739q0 138 14.5 249t50.5 210.5t92.5 166.5t145.5 105.5t205 38.5q85 0 153 -20t117.5 -55t86 -88.5t59 -114t36 -139.5t18.5 -156t5 -172q0 -147 -13 -261t-46.5 -216t-89 -168.5t-143.5 -105t-206 -38.5q-99 0 -176 25.5t-129.5 75.5t-88 115t-55.5 155t-28 183 t-8 210zM270 733q0 -115 6.5 -199t26 -164.5t53 -130.5t89.5 -80t133 -30q74 0 128 29.5t87.5 80.5t53.5 132t27 170t7 209q0 98 -4.5 172t-16 145.5t-32.5 121t-53 88t-79.5 57t-109.5 18.5q-75 0 -130.5 -28.5t-90.5 -79t-56.5 -129.5t-30 -170.5t-8.5 -211.5z" />
<glyph unicode="1" horiz-adv-x="845" d="M82 1311q146 12 243.5 52t166.5 120h106v-1483h-184v1227q-48 -28 -152.5 -48t-165.5 -20z" />
<glyph unicode="2" horiz-adv-x="1071" d="M96 1135q28 194 146 284t305 90q190 0 297.5 -92t107.5 -276q0 -82 -19.5 -155.5t-66 -151.5t-97 -144.5t-138.5 -169.5l-301 -352v-4h643v-164h-860v156l348 419q72 87 112 137t82 111t62 105.5t32.5 96.5t12.5 108q0 219 -234 219q-56 0 -98.5 -12.5t-69.5 -33 t-46.5 -54t-29.5 -67t-18 -81.5z" />
<glyph unicode="3" horiz-adv-x="1107" d="M78 319l176 37q12 -56 25 -89.5t40.5 -67t75.5 -49t119 -15.5q122 0 201.5 71t79.5 216q0 150 -81.5 215t-230.5 65h-133v158h94q154 0 242 74.5t88 198.5q0 221 -233 221q-123 0 -177.5 -50t-84.5 -161l-166 37q65 329 448 329q192 0 296 -94.5t104 -255.5 q0 -80 -26 -144.5t-70 -106.5t-92 -68t-101 -39v-6q315 -57 315 -377q0 -200 -130.5 -321.5t-346.5 -121.5q-183 0 -297 83.5t-135 260.5z" />
<glyph unicode="4" horiz-adv-x="1132" d="M45 365v139l633 979h233v-959h174v-159h-176v-365h-180v365h-684zM229 524h502v774z" />
<glyph unicode="5" horiz-adv-x="1107" d="M61 322l175 43q10 -49 26 -86t45.5 -71t80 -52.5t118.5 -18.5q58 0 109.5 19.5t95 58.5t69 108t25.5 160q0 154 -73 226.5t-195 72.5q-146 0 -265 -112l-127 57l58 756h708v-164h-563l-43 -477q124 100 291 100q64 0 120.5 -13.5t109 -47t90.5 -84t60.5 -129.5t22.5 -179 q0 -232 -133 -373t-362 -141q-82 0 -154 20t-133 60t-102 108.5t-54 158.5z" />
<glyph unicode="6" horiz-adv-x="1157" d="M125 694q0 76 6.5 150t23.5 156.5t43.5 154t70 138t98.5 113.5t133.5 75t171.5 28q153 0 246.5 -72.5t125.5 -242.5l-167 -45q-26 118 -80 162.5t-144 44.5q-66 0 -120.5 -26t-91 -73t-63.5 -105.5t-42 -129.5t-22.5 -138t-8.5 -139q58 64 157.5 111t207.5 47 q191 0 292 -114.5t101 -311.5q0 -239 -126 -370.5t-337 -131.5q-113 0 -198 38.5t-137 102.5t-84 159t-44 195t-12 224zM315 586q4 -76 12 -134.5t28 -122.5t50 -105.5t81.5 -69t119.5 -27.5q121 0 194.5 86t73.5 250q0 143 -59 212.5t-182 69.5q-85 0 -169.5 -46 t-148.5 -113z" />
<glyph unicode="7" horiz-adv-x="1048" d="M72 1319v164h934v-144l-605 -1339h-198l606 1319h-737z" />
<glyph unicode="8" horiz-adv-x="1105" d="M74 356q0 144 81.5 240.5t229.5 163.5q-262 123 -262 360q0 188 127 288.5t332 100.5q201 0 314.5 -90.5t113.5 -249.5q0 -127 -73 -220t-210 -165q74 -33 124 -64.5t95.5 -78t67.5 -110.5t22 -148q0 -177 -134 -292.5t-357 -115.5q-120 0 -212 29.5t-147.5 82 t-83.5 120.5t-28 149zM264 369q0 -110 69 -173t218 -63t220 71.5t71 178.5q0 50 -20 92.5t-48.5 71.5t-74.5 56.5t-82.5 43.5t-88.5 35q-62 -29 -104.5 -56t-81.5 -64.5t-58.5 -85.5t-19.5 -107zM313 1147q0 -44 15.5 -83t38 -67t60 -56.5t69 -46.5t77.5 -42 q248 128 248 307q0 197 -250 197q-121 0 -189.5 -55t-68.5 -154z" />
<glyph unicode="9" horiz-adv-x="1157" d="M96 299l168 49q28 -119 91 -169t167 -50q325 0 336 594q-58 -64 -156 -110t-208 -46q-192 0 -292 117.5t-100 325.5q0 236 129.5 367.5t341.5 131.5q112 0 195.5 -38.5t134 -102t81.5 -158.5t42.5 -194.5t11.5 -224.5q0 -90 -6 -169t-21.5 -163.5t-40.5 -153.5 t-66 -131.5t-94.5 -105.5t-129.5 -68t-168 -25q-355 0 -416 324zM289 1016q0 -293 241 -293q88 0 173 45.5t145 116.5q-2 54 -6 96.5t-13 93.5t-22 89.5t-35 76t-50.5 61.5t-70 39t-92.5 15q-123 0 -196.5 -86t-73.5 -254z" />
<glyph unicode=":" horiz-adv-x="462" d="M92 113q0 67 35.5 102t103.5 35t104 -35t36 -102t-36 -102.5t-104 -35.5q-139 0 -139 138zM92 889q0 67 35.5 102t103.5 35t104 -35t36 -102t-36 -102t-104 -35q-139 0 -139 137z" />
<glyph unicode=";" horiz-adv-x="446" d="M10 -246l115 463h207l-172 -481zM117 889q0 67 35.5 102t103.5 35t103.5 -35t35.5 -102t-35.5 -102t-103.5 -35q-139 0 -139 137z" />
<glyph unicode="&#x3c;" horiz-adv-x="1167" d="M170 487v201l776 313v-172l-606 -235l606 -227v-177z" />
<glyph unicode="=" horiz-adv-x="1167" d="M201 322v174h766v-174h-766zM201 657v174h766v-174h-766z" />
<glyph unicode="&#x3e;" horiz-adv-x="1167" d="M186 201v166l607 227l-607 231v176l777 -313v-192z" />
<glyph unicode="?" horiz-adv-x="1040" d="M43 1126q10 60 31.5 112t59.5 99t89 80t124.5 52.5t162.5 19.5q90 0 164.5 -20.5t136.5 -65.5t96.5 -125.5t34.5 -190.5q0 -375 -442 -464v-240h-181v367q72 6 130.5 17.5t116 36t97 59.5t63.5 91t24 127q0 72 -19 121.5t-54.5 76.5t-79 38.5t-99.5 11.5q-113 0 -183 -52 t-98 -181zM268 106q0 66 36 100t102 34t101.5 -34t35.5 -100q0 -131 -137 -131q-138 0 -138 131z" />
<glyph unicode="@" horiz-adv-x="1724" d="M98 387q0 233 100.5 412t284 277t422.5 98q156 0 288 -43t229.5 -124.5t152.5 -208.5t55 -286q0 -261 -96.5 -390.5t-261.5 -129.5q-84 0 -144.5 30.5t-85.5 81.5q-41 -56 -104.5 -88t-140.5 -32q-80 0 -139.5 29t-94 82t-51 120t-16.5 150q0 197 95.5 322.5t254.5 125.5 q111 0 188 -74l10 62h127v-520q0 -33 1.5 -54t7.5 -44.5t17.5 -36.5t33 -22t51.5 -9q87 0 140 99.5t53 270.5q0 276 -148.5 412.5t-435.5 136.5q-149 0 -270 -50t-199.5 -137t-121 -203.5t-42.5 -250.5q0 -157 47.5 -276t134.5 -192t201 -109.5t254 -36.5q252 0 410 125 l73 -115q-85 -74 -215 -111.5t-286 -37.5q-166 0 -306 47t-246.5 137.5t-166.5 235t-60 327.5zM653 377q0 -264 170 -264q128 0 203 127v385q-71 61 -160 61q-95 0 -154 -77t-59 -232z" />
<glyph unicode="A" horiz-adv-x="1406" d="M74 0l499 1483h246l516 -1483h-207l-149 440h-569l-146 -440h-190zM455 602h477l-238 709h-2z" />
<glyph unicode="B" horiz-adv-x="1286" d="M197 0v1483h510q127 0 216.5 -27.5t138.5 -78.5t70 -113.5t21 -143.5q0 -147 -81 -232.5t-214 -115.5v-4q178 -23 266 -116.5t88 -250.5q0 -111 -39.5 -190t-114.5 -124.5t-171.5 -66t-222.5 -20.5h-467zM383 158h254q71 0 122.5 5t102.5 21t82 43.5t50.5 74.5t19.5 112 q0 95 -46 155.5t-118.5 84.5t-171.5 24h-295v-520zM383 834h215q53 0 100.5 6t97.5 23.5t85.5 45.5t58.5 75.5t23 109.5q0 132 -74.5 182.5t-235.5 50.5h-270v-493z" />
<glyph unicode="C" horiz-adv-x="1417" d="M102 719q0 372 186 581t505 209q243 0 388 -123t162 -374l-176 -19q-22 179 -110 266t-266 87q-235 0 -364.5 -155t-129.5 -456q0 -311 119.5 -454.5t349.5 -143.5q174 0 267.5 76t129.5 236l170 -35q-15 -95 -55 -171t-95.5 -125.5t-127 -82t-146 -46.5t-155.5 -14 q-171 0 -297.5 53t-203.5 153t-114 234t-37 304z" />
<glyph unicode="D" horiz-adv-x="1490" d="M197 0v1483h456q374 0 555 -188t181 -531q0 -173 -46.5 -311.5t-139.5 -240.5t-241.5 -157t-343.5 -55h-421zM385 160h236q285 0 429 150t144 427q0 166 -36.5 281t-111 181.5t-173.5 95t-236 28.5h-252v-1163z" />
<glyph unicode="E" horiz-adv-x="1177" d="M197 0v1483h866v-164h-678v-490h637v-163h-637v-502h705v-164h-893z" />
<glyph unicode="F" horiz-adv-x="1120" d="M197 0v1483h866v-164h-678v-514h627v-164h-627v-641h-188z" />
<glyph unicode="G" horiz-adv-x="1507" d="M102 723q0 374 184.5 580t510.5 206q512 0 549 -493l-181 -19q-19 180 -110 264.5t-264 84.5q-235 0 -364.5 -159t-129.5 -448q0 -167 35 -287t100.5 -188t149 -98.5t190.5 -30.5q96 0 173.5 30.5t124.5 81.5t72 113t25 129v127h-393v154h572v-770h-138l-26 201 q-40 -96 -166.5 -161t-280.5 -65q-164 0 -286.5 54.5t-197.5 155t-112 235.5t-37 303z" />
<glyph unicode="H" horiz-adv-x="1490" d="M197 0v1483h188v-641h721v641h188v-1483h-188v672h-721v-672h-188z" />
<glyph unicode="I" horiz-adv-x="581" d="M197 0v1483h188v-1483h-188z" />
<glyph unicode="J" horiz-adv-x="1021" d="M53 322l180 30q6 -56 16 -91t32 -66t61.5 -45.5t99.5 -14.5q50 0 85 9t66 33t46.5 71.5t15.5 118.5v1116h189v-1108q0 -212 -104.5 -306t-301.5 -94q-184 0 -278.5 83t-106.5 264z" />
<glyph unicode="K" horiz-adv-x="1318" d="M197 0v1483h188v-723l666 723h211l-584 -635l612 -848h-221l-520 700l-164 -174v-526h-188z" />
<glyph unicode="L" horiz-adv-x="1130" d="M197 0v1483h188v-1317h668v-166h-856z" />
<glyph unicode="M" horiz-adv-x="1837" d="M197 0v1483h286l437 -1262h2l436 1262h282v-1483h-178v1280h-2l-448 -1280h-197l-440 1282h-4v-1282h-174z" />
<glyph unicode="N" horiz-adv-x="1525" d="M197 0v1483h247l711 -1231v1231h174v-1483h-227l-729 1243v-1243h-176z" />
<glyph unicode="O" d="M102 741q0 166 46 306t132 243t219.5 161t299.5 58q132 0 240 -37.5t184 -104t128 -159.5t76.5 -203t24.5 -235q0 -243 -75.5 -420t-231 -276t-377.5 -99q-168 0 -297 57t-209 160t-120 241.5t-40 307.5zM299 743q0 -294 129 -448t350 -154q220 0 351 153.5t131 457.5 q0 287 -125 439t-342 152q-222 0 -358 -156t-136 -444z" />
<glyph unicode="P" horiz-adv-x="1261" d="M197 0v1483h483q137 0 236 -35.5t154 -99.5t79.5 -140t24.5 -170q0 -499 -566 -499h-225v-539h-186zM383 700h211q70 0 123.5 7.5t104.5 28.5t84 57t53 95t20 140q0 157 -86 226t-268 69h-242v-623z" />
<glyph unicode="Q" d="M102 741q0 166 46 306t132 243t219.5 161t299.5 58q132 0 240 -37.5t184 -104t128 -159.5t76.5 -203t24.5 -235q0 -385 -192 -592l182 -196l-111 -105l-188 203q-142 -105 -375 -105q-167 0 -295.5 57t-209 160t-121 241.5t-40.5 307.5zM299 743q0 -294 129.5 -450 t349.5 -156q143 0 250 64l-270 284l116 111l269 -295q119 174 119 451q0 287 -126 439t-343 152q-222 0 -358 -156t-136 -444z" />
<glyph unicode="R" horiz-adv-x="1280" d="M197 0v1483h508q107 0 191 -23t137.5 -60.5t88 -90.5t48.5 -109.5t14 -120.5q0 -161 -76 -264t-211 -149l365 -666h-205l-340 616h-334v-616h-186zM383 774h276q159 0 244.5 66.5t85.5 228.5q0 59 -16 103.5t-44.5 73t-73 46t-96 24.5t-118.5 7h-258v-549z" />
<glyph unicode="S" horiz-adv-x="1193" d="M45 403l180 27q15 -66 37 -114t61.5 -91.5t106 -66.5t158.5 -23q65 0 120 12t104 38.5t77.5 77.5t28.5 122q0 38 -10.5 71t-26 57t-44.5 45.5t-53.5 35.5t-66.5 29.5t-70.5 24t-77.5 22.5q-175 49 -249 86q-168 86 -200 250q-9 44 -9 94q0 187 140 298t359 111 q102 0 182.5 -21t146.5 -68t107 -129.5t52 -198.5l-176 -21q-8 47 -19 83.5t-34 75t-55.5 63.5t-84 41t-117.5 16q-161 0 -235 -63t-74 -169q0 -38 11 -70t26 -55.5t45 -46t54 -36t68 -30t71.5 -25.5t78.5 -24q48 -14 73.5 -21.5t70.5 -23.5t70.5 -28t63 -33t59 -41 t46.5 -49.5t38.5 -61.5t22.5 -73t9 -88q0 -91 -28.5 -165t-77 -124t-116 -84t-143 -49t-159.5 -15q-239 0 -376 102.5t-165 325.5z" />
<glyph unicode="T" horiz-adv-x="1134" d="M27 1319v164h1081v-164h-444v-1319h-189v1319h-448z" />
<glyph unicode="U" horiz-adv-x="1462" d="M184 502v981h189v-963q0 -201 89.5 -291t270.5 -90q184 0 270.5 85.5t86.5 289.5v969h186v-985q0 -263 -142 -393t-409 -130q-281 0 -411 131.5t-130 395.5z" />
<glyph unicode="V" horiz-adv-x="1271" d="M20 1483h211l420 -1301h2l406 1301h192l-475 -1483h-256z" />
<glyph unicode="W" horiz-adv-x="1818" d="M35 1483h196l254 -1262h2l328 1262h209l328 -1278h2l243 1278h189l-313 -1483h-240l-315 1219h-3l-323 -1219h-234z" />
<glyph unicode="X" horiz-adv-x="1280" d="M29 0l487 752l-463 731h213l367 -586l379 586h198l-467 -723l508 -760h-217l-407 608l-394 -608h-204z" />
<glyph unicode="Y" horiz-adv-x="1159" d="M-10 1483h213l389 -723h4l379 723h194l-485 -905v-578h-188v573z" />
<glyph unicode="Z" horiz-adv-x="1204" d="M70 0v139l792 1180h-770v164h995v-144l-788 -1175h821v-164h-1050z" />
<glyph unicode="[" horiz-adv-x="557" d="M131 -293v1776h346v-131h-170v-1514h170v-131h-346z" />
<glyph unicode="\" horiz-adv-x="778" d="M20 1546h168l576 -1734h-170z" />
<glyph unicode="]" horiz-adv-x="557" d="M80 -162h170v1514h-170v131h346v-1776h-346v131z" />
<glyph unicode="^" horiz-adv-x="1169" d="M84 612l403 748h191l409 -748h-184l-323 578l-318 -578h-178z" />
<glyph unicode="_" horiz-adv-x="1024" d="M0 -225h1024v-146h-1024v146z" />
<glyph unicode="`" horiz-adv-x="1024" d="M268 1530h224l198 -334l-135 -25z" />
<glyph unicode="a" horiz-adv-x="1116" d="M115 258q0 358 544 358q35 0 93 -4v103q0 109 -44 162t-165 53q-105 0 -155.5 -41.5t-68.5 -132.5l-163 30q25 148 122.5 218.5t280.5 70.5q198 0 287.5 -84t89.5 -278v-514q0 -45 12.5 -63.5t50.5 -18.5q23 0 64 12l8 -117q-66 -32 -145 -32q-74 0 -114 34.5t-48 89.5 q-129 -129 -338 -129q-76 0 -134 20t-90.5 49.5t-53 70t-27 74.5t-6.5 69zM307 289q0 -77 38.5 -122.5t137.5 -45.5q77 0 151 34.5t120 84.5v237q-44 6 -107 6q-53 0 -92.5 -2.5t-89 -14t-81.5 -31.5t-54.5 -57t-22.5 -89z" />
<glyph unicode="b" horiz-adv-x="1189" d="M166 0v1546h184v-610q156 139 357 139q84 0 151.5 -28t120.5 -88t82 -163.5t29 -244.5q0 -149 -35 -262t-96.5 -180.5t-140.5 -100.5t-173 -33q-154 0 -305 117h-2l-10 -92h-162zM352 242q146 -109 271 -109q274 0 274 420q0 188 -60 276.5t-190 88.5q-80 0 -160.5 -40 t-134.5 -92v-544z" />
<glyph unicode="c" horiz-adv-x="1101" d="M100 516q0 272 132.5 415.5t371.5 143.5q181 0 288.5 -93.5t117.5 -272.5l-179 -25q-12 119 -69 177.5t-166 58.5q-61 0 -112 -18t-95 -59.5t-69 -118.5t-25 -185q0 -114 22 -195t63 -126.5t92.5 -66t117.5 -20.5q223 0 262 225l164 -34q-25 -174 -144 -260.5t-288 -86.5 q-127 0 -221.5 39.5t-151.5 113t-84 170.5t-27 218z" />
<glyph unicode="d" horiz-adv-x="1181" d="M102 510q0 121 24 218t65 161t98.5 106.5t121.5 61t136 18.5q172 0 295 -98v569h182v-1546h-156l-14 113l-2 2q-154 -140 -348 -140q-189 0 -295.5 129.5t-106.5 405.5zM295 510q0 -194 63.5 -286.5t200.5 -92.5q77 0 151.5 37t129.5 92v563q-122 92 -269 92 q-276 0 -276 -405z" />
<glyph unicode="e" horiz-adv-x="1118" d="M100 524q0 113 26 205t71 155.5t108 107t136 63.5t155 20q108 0 189.5 -34t130.5 -96t73.5 -143t24.5 -181q0 -73 -8 -138h-709q6 -190 82.5 -271t212.5 -81q109 0 167 46.5t81 139.5l164 -36q-31 -150 -143 -228t-275 -78q-109 0 -193.5 29.5t-139 80t-89.5 122 t-49.5 149t-14.5 168.5zM299 631h522q0 293 -237 293q-54 0 -102 -17t-88.5 -51t-65.5 -91.5t-29 -133.5z" />
<glyph unicode="f" horiz-adv-x="669" d="M33 903v150h155v170q0 171 80.5 257.5t233.5 86.5q115 0 192 -35l-8 -143q-76 26 -147 26q-79 0 -121.5 -41t-42.5 -145v-176h293v-150h-293v-903h-187v903h-155z" />
<glyph unicode="g" horiz-adv-x="1130" d="M66 -203q0 83 49 145t121 97v2q-57 23 -86 57t-29 88q0 61 36 108t103 99q-73 39 -114.5 117t-41.5 178q0 174 122 280.5t325 106.5q209 0 305 -96q27 62 69 99.5t97 37.5q42 0 92 -16v-150q-21 1 -41 1q-83 0 -160 -23q78 -90 78 -230q0 -174 -121.5 -275t-308.5 -101 q-117 0 -188 24q-1 -1 -14.5 -13t-16 -15t-12.5 -14t-13 -18t-6.5 -17.5t-3.5 -20.5q0 -35 28 -54.5t107 -25.5l293 -21q177 -11 260.5 -69.5t83.5 -204.5q0 -75 -31 -134t-82.5 -96t-123 -61.5t-146 -34.5t-157.5 -10q-473 0 -473 260zM252 -168q0 -71 70 -109t239 -38 q326 0 326 165q0 61 -37 90.5t-139 36.5l-342 21q-63 -41 -90 -78t-27 -88zM291 700q0 -225 262 -225q117 0 187.5 58.5t70.5 162.5q0 116 -66 173t-188 57q-119 0 -192.5 -55.5t-73.5 -170.5z" />
<glyph unicode="h" horiz-adv-x="1191" d="M166 0v1546h184v-612q180 141 371 141q165 0 243 -89.5t78 -270.5v-715h-186v686q0 112 -46.5 168.5t-150.5 56.5q-82 0 -169 -40.5t-138 -86.5v-784h-186z" />
<glyph unicode="i" horiz-adv-x="509" d="M131 1391q0 64 34 98.5t97 34.5t98 -34.5t35 -98.5t-35 -100t-98 -36t-97 35.5t-34 100.5zM166 0v1053h186v-1053h-186z" />
<glyph unicode="j" horiz-adv-x="505" d="M-145 -416l20 152q79 -31 154 -31q67 0 102 38t35 128v1182h186v-1190q0 -320 -299 -320q-52 0 -111.5 12t-86.5 29zM131 1407q0 63 35 98t98 35t97 -35t34 -98q0 -65 -34 -100t-97 -35t-98 35.5t-35 99.5z" />
<glyph unicode="k" horiz-adv-x="1087" d="M166 0v1546h186v-956l453 463h211l-365 -379l391 -674h-204l-324 543l-162 -160v-383h-186z" />
<glyph unicode="l" horiz-adv-x="509" d="M166 0v1546h186v-1546h-186z" />
<glyph unicode="m" horiz-adv-x="1773" d="M166 0v1053h160l10 -119q88 67 173 104t185 37q203 0 264 -145q180 145 365 145q161 0 230 -87.5t69 -270.5v-717h-186v690q0 114 -34 167.5t-130 53.5q-69 0 -150 -36t-133 -80q4 -50 4 -78v-717h-186v690q0 114 -34 167.5t-130 53.5q-73 0 -158 -40t-133 -85v-786h-186 z" />
<glyph unicode="n" horiz-adv-x="1191" d="M166 0v1053h164l10 -125q183 147 379 147q167 0 245 -89.5t78 -270.5v-715h-186v686q0 112 -46.5 168.5t-150.5 56.5q-82 0 -169 -40.5t-138 -86.5v-784h-186z" />
<glyph unicode="o" horiz-adv-x="1183" d="M100 522q0 259 132 406t380 147q123 0 214.5 -38t147 -109t82.5 -166t27 -215q0 -271 -120.5 -421.5t-376.5 -150.5q-107 0 -190.5 27.5t-138.5 75.5t-90.5 117.5t-51 150t-15.5 176.5zM293 530q0 -208 74.5 -306.5t228.5 -98.5q143 0 218 97t75 313q0 210 -71 298.5 t-214 88.5q-147 0 -229 -95t-82 -297z" />
<glyph unicode="p" horiz-adv-x="1189" d="M166 -434v1487h162l10 -121q160 143 364 143q86 0 154 -28t121 -88t81.5 -163.5t28.5 -244.5q0 -150 -35 -263t-96 -180t-138.5 -100t-168.5 -33q-166 0 -303 103v-512h-180zM352 238q135 -105 271 -105q274 0 274 420q0 195 -61 281t-189 86q-81 0 -161.5 -40.5 t-133.5 -93.5v-548z" />
<glyph unicode="q" horiz-adv-x="1177" d="M102 512q0 121 24 217.5t65 160t98.5 106t121.5 61t136 18.5q171 0 299 -114l16 92h162v-1487h-176v538q-77 -62 -158 -95.5t-186 -33.5q-189 0 -295.5 130t-106.5 407zM295 512q0 -193 63 -287t201 -94q77 0 151.5 37t129.5 92v553q-128 102 -269 102q-276 0 -276 -403z " />
<glyph unicode="r" horiz-adv-x="745" d="M166 0v1053h156l14 -152q68 92 152.5 133t197.5 41q6 0 19.5 -1t19.5 -1v-192q-27 4 -54 4q-71 -1 -147 -25q-106 -34 -172 -94v-766h-186z" />
<glyph unicode="s" horiz-adv-x="997" d="M80 281l166 45q12 -48 27.5 -80.5t44 -62.5t76 -45t114.5 -15q219 0 219 151q0 29 -6 51t-22 38t-32 27t-47 20.5t-54.5 15t-67.5 14.5q-151 31 -213 59q-155 69 -165 235q-1 12 -1 24q0 103 53.5 176t140 107t195.5 34q179 0 269 -78.5t116 -226.5l-168 -37 q-10 50 -23.5 82.5t-37.5 60t-63 40t-95 12.5q-108 0 -155.5 -40.5t-47.5 -107.5q0 -32 11 -56.5t28.5 -41.5t49.5 -30.5t64 -22.5t81 -19q43 -9 64.5 -14t60 -15t59 -18.5t51.5 -23t47.5 -29.5t37 -37.5t30.5 -47.5t17 -58t7 -72q0 -150 -109.5 -235t-301.5 -85 q-372 0 -420 306z" />
<glyph unicode="t" horiz-adv-x="776" d="M37 903v150h162v305l186 28v-333h291v-150h-291v-602q0 -90 31 -131t121 -41q92 0 184 51l33 -135q-41 -28 -114.5 -49t-143.5 -21q-150 0 -223.5 72.5t-73.5 228.5v627h-162z" />
<glyph unicode="u" horiz-adv-x="1189" d="M162 338v715h186v-686q0 -117 40 -171.5t151 -54.5q82 0 168.5 41t136.5 88v783h186v-1053h-162l-12 121q-171 -141 -373 -141q-165 0 -243 89.5t-78 268.5z" />
<glyph unicode="v" horiz-adv-x="1034" d="M12 1053h203l309 -867h2l305 867h191l-395 -1053h-213z" />
<glyph unicode="w" d="M12 1053h189l256 -856l231 856h193l229 -852h2l250 852h180l-328 -1053h-217l-217 829h-2l-215 -829h-221z" />
<glyph unicode="x" horiz-adv-x="1007" d="M35 0l354 543l-352 510h205l258 -383l266 383h190l-354 -506l373 -547h-203l-280 414l-267 -414h-190z" />
<glyph unicode="y" horiz-adv-x="993" d="M-20 -418l22 146q92 -33 168 -33q61 0 108 37.5t80 126.5l50 129l-392 1065h207l279 -836h2l289 836h190l-455 -1207q-63 -166 -142 -234.5t-204 -68.5q-113 0 -202 39z" />
<glyph unicode="z" horiz-adv-x="940" d="M63 0v127l590 776h-581v150h792v-135l-590 -768h615v-150h-826z" />
<glyph unicode="{" horiz-adv-x="626" d="M8 526v138h35q156 0 156 174q0 68 -13.5 224t-13.5 210q0 237 279 237h112v-145h-80q-66 0 -93.5 -26.5t-27.5 -82.5q0 -59 13.5 -208.5t13.5 -217.5q0 -57 -11.5 -98t-34.5 -67t-46 -41t-59 -29q35 -13 59 -28t46.5 -41t34 -67.5t11.5 -97.5q0 -70 -13.5 -203.5 t-13.5 -187.5q0 -63 32 -95t112 -32h57v-139h-110q-281 0 -281 238q0 66 13.5 204.5t13.5 204.5q0 94 -39.5 135t-114.5 41h-37z" />
<glyph unicode="|" horiz-adv-x="573" d="M203 -293v1839h168v-1839h-168z" />
<glyph unicode="}" horiz-adv-x="626" d="M63 -152h80q66 0 93.5 26.5t27.5 82.5q0 59 -13 208.5t-13 217.5q0 57 11.5 98t34.5 67t46 41t59 29q-35 13 -59 28t-46.5 41t-34 67.5t-11.5 97.5q0 70 13 203.5t13 187.5q0 63 -31.5 95t-111.5 32h-58v139h111q281 0 281 -237q0 -66 -13.5 -205t-13.5 -205 q0 -94 39.5 -135t114.5 -41h36v-137h-34q-156 0 -156 -174q0 -68 13.5 -224t13.5 -210q0 -238 -279 -238h-113v145z" />
<glyph unicode="~" horiz-adv-x="1058" d="M102 602q-14 123 38 190.5t141 67.5q69 0 255.5 -47t227.5 -47t58.5 21t17.5 85l118 -6q14 -121 -36.5 -186.5t-141.5 -65.5q-68 0 -256 47.5t-231 47.5q-80 0 -72 -111z" />
<glyph unicode="&#xa1;" horiz-adv-x="544" d="M150 942q0 64 35.5 97.5t101.5 33.5q137 0 137 -131q0 -133 -137 -133q-66 0 -101.5 33.5t-35.5 99.5zM184 -434l33 1098h141l35 -1098h-209z" />
<glyph unicode="&#xa2;" horiz-adv-x="1056" d="M121 713q0 220 101.5 351t279.5 161v209h155v-205q137 -16 223 -102t95 -234l-170 -25q-9 93 -47 142t-109 61v-700q75 10 115 56t61 138l158 -33q-22 -141 -110.5 -219t-221.5 -98v-215h-149v211q-188 24 -284.5 159t-96.5 343zM313 735q0 -311 193 -360v692 q-193 -48 -193 -332z" />
<glyph unicode="&#xa3;" horiz-adv-x="1148" d="M45 0v154h111q170 153 170 325q0 88 -47 180h-213v152h157q-26 47 -41 77.5t-33 93t-18 120.5q0 180 130.5 293.5t336.5 113.5q196 0 303 -88.5t131 -287.5l-168 -23q-9 63 -25 106t-46 76.5t-79 49.5t-120 16q-128 0 -204.5 -61.5t-76.5 -174.5q0 -31 5.5 -64t11.5 -56 t19.5 -57t19.5 -47t23.5 -48l19.5 -39h462v-152h-411q39 -85 39 -176q0 -180 -152 -329h355q60 0 100.5 12.5t67.5 42t42.5 69.5t26.5 103l164 -33q-22 -182 -117 -265t-276 -83h-668z" />
<glyph unicode="&#xa4;" horiz-adv-x="1167" d="M-2 129l192 193q-63 108 -63 253q0 131 68 240l-191 189l121 122l182 -180q115 88 281 88q168 0 276 -82l174 172l113 -118l-178 -181q59 -106 59 -241q0 -147 -74 -265l193 -188l-123 -121l-186 183q-109 -76 -269 -76q-165 0 -276 80q-6 -8 -94 -96t-90 -91zM311 575 q0 -135 67.5 -219t205.5 -84q127 0 196.5 85.5t69.5 217.5q0 141 -69 220t-203 79q-128 0 -197.5 -82t-69.5 -217z" />
<glyph unicode="&#xa5;" horiz-adv-x="1085" d="M47 1483h205l305 -572h2l293 572h190l-329 -615h207v-139h-275v-178h275v-141h-275v-410h-186v410h-271v141h271v178h-271v139h197z" />
<glyph unicode="&#xa6;" horiz-adv-x="573" d="M203 -293v795h168v-795h-168zM203 844v702h168v-702h-168z" />
<glyph unicode="&#xa7;" horiz-adv-x="1122" d="M96 508q0 88 51 166t144 137q-121 96 -121 268q0 176 123 274.5t311 98.5q187 0 298.5 -95t121.5 -276l-174 -22q-13 120 -72 182t-180 62q-119 0 -182.5 -55t-63.5 -146q0 -56 23.5 -98t63.5 -68t92 -46t109 -36.5t114 -33.5t109 -42.5t92 -59.5t63.5 -88t23.5 -124 q0 -87 -51 -166.5t-141 -138.5q121 -92 121 -267q0 -176 -123 -274t-311 -98q-187 0 -298.5 94.5t-123.5 275.5l176 23q11 -119 71 -181.5t183 -62.5q117 0 180 56t63 151q0 56 -23.5 97t-63.5 66.5t-92 45t-109.5 35t-115 32t-109.5 41.5t-92 59t-63.5 88.5t-23.5 125.5z M274 539q0 -44 20 -78.5t50.5 -55t78.5 -39.5t91.5 -30.5t103 -28.5t101.5 -33q147 92 147 203q0 51 -26 88t-76 60.5t-100.5 38.5t-124 35.5t-121.5 39.5q-144 -93 -144 -200z" />
<glyph unicode="&#xa8;" horiz-adv-x="1024" d="M168 1376q0 57 36 91t95 34q57 0 92 -34t35 -91q0 -59 -34.5 -93t-92.5 -34q-59 0 -95 34t-36 93zM598 1376q0 57 35 91t94 34t94 -34t35 -91q0 -59 -35 -93t-94 -34t-94 34t-35 93z" />
<glyph unicode="&#xa9;" horiz-adv-x="1579" d="M100 639q0 158 54.5 289.5t148.5 218.5t220 134.5t270 47.5q318 0 502 -179.5t184 -481.5q0 -310 -191.5 -501.5t-499.5 -191.5q-167 0 -299 51t-216.5 141t-128.5 210t-44 262zM225 641q0 -258 151.5 -406.5t416.5 -148.5q262 0 413.5 152.5t151.5 416.5q0 268 -155 415 t-410 147q-163 0 -290.5 -67t-202.5 -199t-75 -310zM430 657q0 178 98 288t275 110q128 0 211 -63.5t90 -198.5l-121 -17q-8 89 -51.5 130.5t-132.5 41.5q-102 0 -167 -71.5t-65 -223.5q0 -127 57 -207.5t171 -80.5q95 0 139.5 42t64.5 132l115 -19q-8 -61 -32.5 -109 t-56.5 -77.5t-72.5 -48.5t-78.5 -26t-77 -7q-96 0 -168 30.5t-115 86.5t-63.5 128t-20.5 160z" />
<glyph unicode="&#xaa;" horiz-adv-x="774" d="M76 745q0 64 25.5 109.5t73 71t103.5 38t128 15.5q63 0 90 -4v57q0 67 -26 99t-99 32q-65 0 -94.5 -24.5t-40.5 -81.5l-132 24q15 96 83 143.5t196 47.5q137 0 200.5 -55t63.5 -181v-319q0 -29 8.5 -40t34.5 -11q17 0 41 6l6 -84q-44 -23 -108 -23q-53 0 -82.5 23.5 t-36.5 58.5q-93 -86 -225 -86q-62 0 -106 18.5t-65 48.5t-29.5 58.5t-8.5 58.5zM233 768q0 -96 107 -96q45 0 88 19t70 46v142q-32 4 -58 4q-44 -1 -75 -5t-64 -15t-50.5 -35t-17.5 -60z" />
<glyph unicode="&#xab;" horiz-adv-x="890" d="M117 530l182 306h168l-172 -299l168 -326h-168zM444 530l183 306h168l-172 -299l168 -326h-168z" />
<glyph unicode="&#xac;" horiz-adv-x="1167" d="M193 582v170h772v-363h-166v193h-606z" />
<glyph unicode="&#xad;" horiz-adv-x="636" d="M41 514v178h555v-178h-555z" />
<glyph unicode="&#xae;" horiz-adv-x="925" d="M82 965q0 174 109.5 278.5t273.5 104.5q174 0 276.5 -100.5t102.5 -268.5q0 -170 -106.5 -275.5t-276.5 -105.5q-182 0 -280.5 102t-98.5 265zM170 967q0 -133 79 -210t216 -77q135 0 214 79t79 214q0 140 -81 216.5t-212 76.5q-128 0 -211.5 -80.5t-83.5 -218.5z M338 784v392h139q135 0 135 -111q0 -75 -69 -102l104 -179h-88l-90 154h-51v-154h-80zM418 999h26q41 0 63.5 13t22.5 49q0 30 -18 41.5t-53 11.5h-41v-115z" />
<glyph unicode="&#xaf;" horiz-adv-x="1024" d="M215 1280v145h596v-145h-596z" />
<glyph unicode="&#xb0;" horiz-adv-x="696" d="M141 1298q0 109 66 171.5t166 62.5q101 0 164 -60t63 -167q0 -106 -61.5 -168t-165.5 -62q-106 0 -169 60.5t-63 162.5zM258 1298q0 -53 30 -83.5t85 -30.5q53 0 81.5 32.5t28.5 88.5q0 57 -28.5 87.5t-81.5 30.5q-52 0 -83.5 -32.5t-31.5 -92.5z" />
<glyph unicode="&#xb1;" horiz-adv-x="1167" d="M197 0v164h772v-164h-772zM197 573v170h301v308h170v-308h301v-170h-301v-297h-170v297h-301z" />
<glyph unicode="&#xb2;" horiz-adv-x="790" d="M94 1395q17 125 99 186t208 61q134 0 205.5 -59.5t71.5 -173.5q0 -98 -52 -178t-182 -213l-143 -156v-4h391v-143h-586v139l211 233q110 121 149.5 183t39.5 131q0 110 -121 110q-68 0 -101.5 -36t-43.5 -105z" />
<glyph unicode="&#xb3;" horiz-adv-x="817" d="M78 926l151 28q10 -63 41.5 -93t102.5 -30q66 0 107.5 36.5t41.5 111.5q0 80 -42 112.5t-126 32.5h-88v123h60q87 0 135.5 42.5t48.5 111.5q0 53 -27.5 81.5t-93.5 28.5t-97.5 -28t-45.5 -88l-146 28q22 115 104.5 167t201.5 52q130 0 201 -58t71 -159q0 -89 -51.5 -143 t-126.5 -78v-2q196 -40 196 -227q0 -126 -88.5 -200.5t-232.5 -74.5q-121 0 -202 55t-95 171z" />
<glyph unicode="&#xb4;" horiz-adv-x="1024" d="M342 1196l199 334h223l-287 -359z" />
<glyph unicode="&#xb5;" horiz-adv-x="1288" d="M205 -360v1413h186v-684q0 -125 37 -179.5t131 -54.5q91 0 175 50t149 120v748h186v-1053h-178v127h-2q-173 -147 -354 -147q-46 0 -89.5 14t-66.5 37l-6 -2l22 -389h-190z" />
<glyph unicode="&#xb6;" horiz-adv-x="1150" d="M51 979q0 108 29.5 194t81 143t124.5 95.5t155 55t177 16.5h347l2 -1755h-160v1615h-168v-1615h-160v782q-202 17 -315 140.5t-113 328.5z" />
<glyph unicode="&#xb7;" horiz-adv-x="397" d="M63 623q0 133 136 133q135 0 135 -133q0 -131 -135 -131q-66 0 -101 33.5t-35 97.5z" />
<glyph unicode="&#xb8;" horiz-adv-x="1024" d="M274 -434l35 104q63 -30 115 -30q46 0 72 25.5t26 66.5q0 51 -34.5 72.5t-114.5 23.5l33 233l116 -16l-18 -135q162 -31 162 -180q0 -93 -64 -149t-162 -56q-91 0 -166 41z" />
<glyph unicode="&#xb9;" horiz-adv-x="647" d="M82 1518q183 13 268 104h113v-911h-170v712q-29 -16 -97 -27.5t-106 -11.5z" />
<glyph unicode="&#xba;" horiz-adv-x="817" d="M70 915q0 167 90 262t262 95q166 0 246 -91t80 -249q0 -176 -84 -273.5t-261 -97.5q-333 0 -333 354zM231 920q0 -123 43 -177.5t136 -54.5q86 0 131 54.5t45 181.5q0 122 -42 174.5t-128 52.5q-185 0 -185 -231z" />
<glyph unicode="&#xbb;" horiz-adv-x="890" d="M100 211l172 307l-172 318h168l181 -316l-181 -309h-168zM428 211l172 307l-172 318h168l180 -316l-180 -309h-168z" />
<glyph unicode="&#xbc;" horiz-adv-x="1822" d="M113 1378q182 12 268 105h113v-912h-170v713q-29 -16 -97 -27.5t-106 -11.5zM416 -25l729 1508h172l-725 -1508h-176zM1012 211v117l385 583h207v-567h108v-133h-106v-211h-166v211h-428zM1163 344h277v418z" />
<glyph unicode="&#xbd;" horiz-adv-x="1822" d="M129 1378q182 12 268 105h113v-912h-170v713q-29 -16 -97 -27.5t-106 -11.5zM389 -25l729 1508h172l-725 -1508h-176zM1114 680q17 125 99 186.5t208 61.5q134 0 205.5 -60t71.5 -174q0 -98 -52 -178t-182 -213l-143 -156v-4h391v-143h-586v139l211 234 q110 122 149.5 183t39.5 130q0 111 -121 111q-68 0 -101.5 -36.5t-43.5 -105.5z" />
<glyph unicode="&#xbe;" horiz-adv-x="1822" d="M92 786l152 29q10 -63 41 -93t102 -30q66 0 108 36.5t42 111.5q0 80 -42 112.5t-126 32.5h-88v123h59q87 0 135.5 42.5t48.5 111.5q0 53 -27.5 81.5t-93.5 28.5t-97.5 -28t-45.5 -89l-145 29q22 115 104 167t201 52q130 0 201 -58t71 -159q0 -89 -51.5 -143t-126.5 -78 v-2q197 -40 197 -227q0 -126 -89 -200.5t-233 -74.5q-122 0 -202.5 54.5t-94.5 170.5zM489 -25l730 1508h172l-725 -1508h-177zM1057 211v117l385 583h207v-567h108v-133h-106v-211h-166v211h-428zM1208 344h277v418z" />
<glyph unicode="&#xbf;" horiz-adv-x="983" d="M80 -39q0 376 442 465v240h180v-367q-91 -7 -162 -25.5t-134.5 -54.5t-98.5 -100t-35 -152q0 -72 19 -121.5t54.5 -76.5t79 -38.5t99.5 -11.5q113 0 183 52.5t98 181.5l174 -31q-10 -60 -31.5 -112t-59.5 -98.5t-89 -79.5t-124.5 -52.5t-162.5 -19.5q-91 0 -165 20.5 t-136 65t-96.5 125t-34.5 190.5zM479 942q0 131 137 131q138 0 138 -131q0 -65 -35.5 -99t-102.5 -34q-66 0 -101.5 33.5t-35.5 99.5z" />
<glyph unicode="&#xc0;" horiz-adv-x="1406" d="M74 0l499 1483h246l516 -1483h-207l-149 440h-569l-146 -440h-190zM436 1870h226l202 -275l-141 -24zM455 602h477l-238 709h-2z" />
<glyph unicode="&#xc1;" horiz-adv-x="1406" d="M74 0l499 1483h246l516 -1483h-207l-149 440h-569l-146 -440h-190zM455 602h477l-238 709h-2zM549 1595l203 275h225l-287 -299z" />
<glyph unicode="&#xc2;" horiz-adv-x="1406" d="M74 0l499 1483h246l516 -1483h-207l-149 440h-569l-146 -440h-190zM387 1589l238 264h161l234 -264l-143 -14l-175 160l-172 -164zM455 602h477l-238 709h-2z" />
<glyph unicode="&#xc3;" horiz-adv-x="1406" d="M74 0l499 1483h246l516 -1483h-207l-149 440h-569l-146 -440h-190zM373 1599q-16 123 36.5 187.5t137.5 64.5q55 0 112.5 -23t108.5 -46t88 -23q41 0 59.5 21.5t18.5 83.5l113 -6q16 -120 -34 -184t-139 -64q-55 0 -114 23.5t-111 47t-90 23.5q-80 0 -72 -111zM455 602 h477l-238 709h-2z" />
<glyph unicode="&#xc4;" horiz-adv-x="1406" d="M74 0l499 1483h246l516 -1483h-207l-149 440h-569l-146 -440h-190zM358 1722q0 58 36 92.5t95 34.5q57 0 92 -34.5t35 -92.5t-34.5 -91.5t-92.5 -33.5q-59 0 -95 33.5t-36 91.5zM455 602h477l-238 709h-2zM788 1722q0 58 35.5 92.5t94.5 34.5t94 -34.5t35 -92.5 t-35 -91.5t-94 -33.5t-94.5 33.5t-35.5 91.5z" />
<glyph unicode="&#xc5;" horiz-adv-x="1406" d="M74 0l497 1477q-90 52 -90 168q0 101 60.5 155.5t152.5 54.5q95 0 156 -51t61 -149q0 -123 -92 -176l516 -1479h-207l-149 440h-569l-146 -440h-190zM455 602h477l-238 709h-2zM592 1651q0 -50 26.5 -76.5t75.5 -26.5q50 0 75.5 28.5t25.5 80.5q0 96 -101 96 q-45 0 -73.5 -26.5t-28.5 -75.5z" />
<glyph unicode="&#xc6;" horiz-adv-x="2048" d="M61 0l807 1483h1049v-164h-678v-506h635v-162h-635v-487h705v-164h-895v647h-439l-352 -647h-197zM684 807h365v512h-88z" />
<glyph unicode="&#xc7;" horiz-adv-x="1417" d="M102 719q0 372 186 581t505 209q243 0 388 -123t162 -374l-176 -19q-22 179 -110 266t-266 87q-235 0 -364.5 -155t-129.5 -456q0 -311 119.5 -454.5t349.5 -143.5q174 0 267.5 76t129.5 236l170 -35q-17 -109 -66 -192t-121.5 -133.5t-154.5 -77.5t-176 -34l-8 -67 q162 -31 162 -180q0 -93 -64 -149t-162 -56q-87 0 -159 39l28 106q62 -30 111 -30t75.5 25.5t26.5 66.5q0 51 -34.5 72.5t-114.5 23.5l18 149q-155 9 -270 66t-185 155.5t-103.5 228t-33.5 292.5z" />
<glyph unicode="&#xc8;" horiz-adv-x="1177" d="M197 0v1483h866v-164h-678v-490h637v-163h-637v-502h705v-164h-893zM358 1870h226l202 -275l-141 -24z" />
<glyph unicode="&#xc9;" horiz-adv-x="1177" d="M197 0v1483h866v-164h-678v-490h637v-163h-637v-502h705v-164h-893zM471 1595l203 275h225l-287 -299z" />
<glyph unicode="&#xca;" horiz-adv-x="1177" d="M197 0v1483h866v-164h-678v-490h637v-163h-637v-502h705v-164h-893zM309 1589l238 264h162l233 -264l-143 -14l-174 160l-172 -164z" />
<glyph unicode="&#xcb;" horiz-adv-x="1177" d="M197 0v1483h866v-164h-678v-490h637v-163h-637v-502h705v-164h-893zM281 1722q0 58 36 92.5t95 34.5q57 0 92 -34.5t35 -92.5t-34.5 -91.5t-92.5 -33.5q-59 0 -95 33.5t-36 91.5zM711 1722q0 58 35 92.5t94 34.5t94 -34.5t35 -92.5t-35 -91.5t-94 -33.5t-94 33.5 t-35 91.5z" />
<glyph unicode="&#xcc;" horiz-adv-x="581" d="M27 1870h225l203 -275l-142 -24zM197 0v1483h188v-1483h-188z" />
<glyph unicode="&#xcd;" horiz-adv-x="581" d="M139 1595l203 275h225l-286 -299zM197 0v1483h188v-1483h-188z" />
<glyph unicode="&#xce;" horiz-adv-x="581" d="M-23 1589l238 264h162l233 -264l-143 -14l-174 160l-172 -164zM197 0v1483h188v-1483h-188z" />
<glyph unicode="&#xcf;" horiz-adv-x="581" d="M-51 1722q0 58 36 92.5t95 34.5q57 0 92 -34.5t35 -92.5t-34.5 -91.5t-92.5 -33.5q-59 0 -95 33.5t-36 91.5zM197 0v1483h188v-1483h-188zM379 1722q0 58 35 92.5t94 34.5t94 -34.5t35 -92.5t-35 -91.5t-94 -33.5t-94 33.5t-35 91.5z" />
<glyph unicode="&#xd0;" horiz-adv-x="1490" d="M37 674v153h160v656h456q374 0 555 -188t181 -531q0 -173 -46.5 -311.5t-139.5 -240.5t-241.5 -157t-343.5 -55h-421v674h-160zM385 160h236q285 0 429 150t144 427q0 166 -36.5 281t-111 181.5t-173.5 95t-236 28.5h-252v-496h416v-153h-416v-514z" />
<glyph unicode="&#xd1;" horiz-adv-x="1525" d="M197 0v1483h247l711 -1231v1231h174v-1483h-227l-729 1243v-1243h-176zM449 1599q-16 123 36.5 187.5t137.5 64.5q55 0 112.5 -23t108.5 -46t88 -23q41 0 59.5 21.5t18.5 83.5l112 -6q16 -120 -33.5 -184t-138.5 -64q-55 0 -114 23.5t-111 47t-90 23.5q-80 0 -72 -111z " />
<glyph unicode="&#xd2;" d="M102 741q0 166 46 306t132 243t219.5 161t299.5 58q132 0 240 -37.5t184 -104t128 -159.5t76.5 -203t24.5 -235q0 -243 -75.5 -420t-231 -276t-377.5 -99q-168 0 -297 57t-209 160t-120 241.5t-40 307.5zM299 743q0 -294 129 -448t350 -154q220 0 351 153.5t131 457.5 q0 287 -125 439t-342 152q-222 0 -358 -156t-136 -444zM524 1870h226l202 -275l-141 -24z" />
<glyph unicode="&#xd3;" d="M102 741q0 166 46 306t132 243t219.5 161t299.5 58q132 0 240 -37.5t184 -104t128 -159.5t76.5 -203t24.5 -235q0 -243 -75.5 -420t-231 -276t-377.5 -99q-168 0 -297 57t-209 160t-120 241.5t-40 307.5zM299 743q0 -294 129 -448t350 -154q220 0 351 153.5t131 457.5 q0 287 -125 439t-342 152q-222 0 -358 -156t-136 -444zM637 1595l203 275h225l-287 -299z" />
<glyph unicode="&#xd4;" d="M102 741q0 166 46 306t132 243t219.5 161t299.5 58q132 0 240 -37.5t184 -104t128 -159.5t76.5 -203t24.5 -235q0 -243 -75.5 -420t-231 -276t-377.5 -99q-168 0 -297 57t-209 160t-120 241.5t-40 307.5zM299 743q0 -294 129 -448t350 -154q220 0 351 153.5t131 457.5 q0 287 -125 439t-342 152q-222 0 -358 -156t-136 -444zM475 1589l238 264h161l234 -264l-143 -14l-174 160l-173 -164z" />
<glyph unicode="&#xd5;" d="M102 741q0 166 46 306t132 243t219.5 161t299.5 58q132 0 240 -37.5t184 -104t128 -159.5t76.5 -203t24.5 -235q0 -243 -75.5 -420t-231 -276t-377.5 -99q-168 0 -297 57t-209 160t-120 241.5t-40 307.5zM299 743q0 -294 129 -448t350 -154q220 0 351 153.5t131 457.5 q0 287 -125 439t-342 152q-222 0 -358 -156t-136 -444zM461 1599q-16 123 36.5 187.5t137.5 64.5q55 0 112.5 -23t108.5 -46t88 -23q41 0 59.5 21.5t18.5 83.5l113 -6q16 -120 -33.5 -184t-138.5 -64q-55 0 -114 23.5t-111.5 47t-90.5 23.5q-80 0 -72 -111z" />
<glyph unicode="&#xd6;" d="M102 741q0 166 46 306t132 243t219.5 161t299.5 58q132 0 240 -37.5t184 -104t128 -159.5t76.5 -203t24.5 -235q0 -243 -75.5 -420t-231 -276t-377.5 -99q-168 0 -297 57t-209 160t-120 241.5t-40 307.5zM299 743q0 -294 129 -448t350 -154q220 0 351 153.5t131 457.5 q0 287 -125 439t-342 152q-222 0 -358 -156t-136 -444zM446 1722q0 58 36.5 92.5t95.5 34.5q57 0 92 -34.5t35 -92.5t-34.5 -91.5t-92.5 -33.5q-59 0 -95.5 33.5t-36.5 91.5zM877 1722q0 58 35 92.5t94 34.5t94 -34.5t35 -92.5t-35 -91.5t-94 -33.5t-94 33.5t-35 91.5z" />
<glyph unicode="&#xd7;" horiz-adv-x="1167" d="M248 440l217 215l-217 219l121 123l213 -215l217 215l119 -123l-216 -219l216 -215l-119 -125l-217 217l-213 -217z" />
<glyph unicode="&#xd8;" d="M102 741q0 166 46 306t132 243t219.5 161t299.5 58q106 0 205 -26l61 143h182l-88 -213q145 -91 219 -259.5t74 -383.5q0 -243 -75.5 -420t-231 -276t-377.5 -99q-107 0 -199 25l-59 -147h-184l86 208q-155 92 -232.5 268t-77.5 412zM299 743q0 -355 186 -505l453 1085 q-75 20 -145 20q-222 0 -358 -156t-136 -444zM637 160q68 -19 141 -19q220 0 351 153.5t131 457.5q0 337 -173 489z" />
<glyph unicode="&#xd9;" horiz-adv-x="1462" d="M184 502v981h189v-963q0 -201 89.5 -291t270.5 -90q184 0 270.5 85.5t86.5 289.5v969h186v-985q0 -263 -142 -393t-409 -130q-281 0 -411 131.5t-130 395.5zM465 1870h225l203 -275l-141 -24z" />
<glyph unicode="&#xda;" horiz-adv-x="1462" d="M184 502v981h189v-963q0 -201 89.5 -291t270.5 -90q184 0 270.5 85.5t86.5 289.5v969h186v-985q0 -263 -142 -393t-409 -130q-281 0 -411 131.5t-130 395.5zM578 1595l202 275h226l-287 -299z" />
<glyph unicode="&#xdb;" horiz-adv-x="1462" d="M184 502v981h189v-963q0 -201 89.5 -291t270.5 -90q184 0 270.5 85.5t86.5 289.5v969h186v-985q0 -263 -142 -393t-409 -130q-281 0 -411 131.5t-130 395.5zM416 1589l237 264h162l234 -264l-144 -14l-174 160l-172 -164z" />
<glyph unicode="&#xdc;" horiz-adv-x="1462" d="M184 502v981h189v-963q0 -201 89.5 -291t270.5 -90q184 0 270.5 85.5t86.5 289.5v969h186v-985q0 -263 -142 -393t-409 -130q-281 0 -411 131.5t-130 395.5zM387 1722q0 58 36 92.5t95 34.5q57 0 92 -34.5t35 -92.5t-34.5 -91.5t-92.5 -33.5q-59 0 -95 33.5t-36 91.5z M817 1722q0 58 35 92.5t94 34.5t94 -34.5t35 -92.5t-35 -91.5t-94 -33.5t-94 33.5t-35 91.5z" />
<glyph unicode="&#xdd;" horiz-adv-x="1159" d="M-10 1483h213l389 -723h4l379 723h194l-485 -905v-578h-188v573zM438 1595l203 275h225l-286 -299z" />
<glyph unicode="&#xde;" horiz-adv-x="1261" d="M197 0v1483h186v-244h297q110 0 196.5 -24t141.5 -64t91 -96.5t50.5 -117.5t14.5 -132q0 -496 -566 -496h-225v-309h-186zM383 471h211q70 0 123 7t104.5 27.5t84.5 56t53 94t20 139.5q0 148 -87 216t-267 68h-242v-608z" />
<glyph unicode="&#xdf;" horiz-adv-x="1351" d="M166 0v1104q0 124 36 215.5t102.5 146t154 80t198.5 25.5q221 0 339 -96.5t118 -272.5q0 -244 -235 -344v-6q82 -15 146 -43t117 -76.5t81 -125t28 -177.5q0 -204 -111.5 -328.5t-310.5 -124.5q-139 0 -236 67t-122 196l123 67q26 -89 73 -134.5t142 -45.5q116 0 183 74 t67 219q0 334 -377 334h-82v143h31q80 0 139 22.5t92 62.5t48.5 88t15.5 106q0 249 -287 249q-69 0 -119 -15.5t-89 -51.5t-59 -102t-20 -162v-1094h-186z" />
<glyph unicode="&#xe0;" horiz-adv-x="1116" d="M115 258q0 358 544 358q35 0 93 -4v103q0 109 -44 162t-165 53q-105 0 -155.5 -41.5t-68.5 -132.5l-163 30q25 148 122.5 218.5t280.5 70.5q198 0 287.5 -84t89.5 -278v-514q0 -45 12.5 -63.5t50.5 -18.5q23 0 64 12l8 -117q-66 -32 -145 -32q-74 0 -114 34.5t-48 89.5 q-129 -129 -338 -129q-76 0 -134 20t-90.5 49.5t-53 70t-27 74.5t-6.5 69zM307 289q0 -77 38.5 -122.5t137.5 -45.5q77 0 151 34.5t120 84.5v237q-44 6 -107 6q-53 0 -92.5 -2.5t-89 -14t-81.5 -31.5t-54.5 -57t-22.5 -89zM313 1530h224l198 -334l-135 -25z" />
<glyph unicode="&#xe1;" horiz-adv-x="1116" d="M115 258q0 358 544 358q35 0 93 -4v103q0 109 -44 162t-165 53q-105 0 -155.5 -41.5t-68.5 -132.5l-163 30q25 148 122.5 218.5t280.5 70.5q198 0 287.5 -84t89.5 -278v-514q0 -45 12.5 -63.5t50.5 -18.5q23 0 64 12l8 -117q-66 -32 -145 -32q-74 0 -114 34.5t-48 89.5 q-129 -129 -338 -129q-76 0 -134 20t-90.5 49.5t-53 70t-27 74.5t-6.5 69zM307 289q0 -77 38.5 -122.5t137.5 -45.5q77 0 151 34.5t120 84.5v237q-44 6 -107 6q-53 0 -92.5 -2.5t-89 -14t-81.5 -31.5t-54.5 -57t-22.5 -89zM387 1196l199 334h223l-287 -359z" />
<glyph unicode="&#xe2;" horiz-adv-x="1116" d="M115 258q0 358 544 358q35 0 93 -4v103q0 109 -44 162t-165 53q-105 0 -155.5 -41.5t-68.5 -132.5l-163 30q25 148 122.5 218.5t280.5 70.5q198 0 287.5 -84t89.5 -278v-514q0 -45 12.5 -63.5t50.5 -18.5q23 0 64 12l8 -117q-66 -32 -145 -32q-74 0 -114 34.5t-48 89.5 q-129 -129 -338 -129q-76 0 -134 20t-90.5 49.5t-53 70t-27 74.5t-6.5 69zM238 1194l229 338h182l232 -338l-142 -12l-182 231l-180 -233zM307 289q0 -77 38.5 -122.5t137.5 -45.5q77 0 151 34.5t120 84.5v237q-44 6 -107 6q-53 0 -92.5 -2.5t-89 -14t-81.5 -31.5t-54.5 -57 t-22.5 -89z" />
<glyph unicode="&#xe3;" horiz-adv-x="1116" d="M115 258q0 358 544 358q35 0 93 -4v103q0 109 -44 162t-165 53q-105 0 -155.5 -41.5t-68.5 -132.5l-163 30q25 148 122.5 218.5t280.5 70.5q198 0 287.5 -84t89.5 -278v-514q0 -45 12.5 -63.5t50.5 -18.5q23 0 64 12l8 -117q-66 -32 -145 -32q-74 0 -114 34.5t-48 89.5 q-129 -129 -338 -129q-76 0 -134 20t-90.5 49.5t-53 70t-27 74.5t-6.5 69zM219 1212q-14 122 38.5 188t135.5 66q55 0 112.5 -23.5t108.5 -47t88 -23.5q41 0 59.5 21.5t18.5 83.5l113 -4q14 -121 -35 -185.5t-137 -64.5q-55 0 -114 23.5t-111 47t-90 23.5q-79 0 -72 -111z M307 289q0 -77 38.5 -122.5t137.5 -45.5q77 0 151 34.5t120 84.5v237q-44 6 -107 6q-53 0 -92.5 -2.5t-89 -14t-81.5 -31.5t-54.5 -57t-22.5 -89z" />
<glyph unicode="&#xe4;" horiz-adv-x="1116" d="M115 258q0 358 544 358q35 0 93 -4v103q0 109 -44 162t-165 53q-105 0 -155.5 -41.5t-68.5 -132.5l-163 30q25 148 122.5 218.5t280.5 70.5q198 0 287.5 -84t89.5 -278v-514q0 -45 12.5 -63.5t50.5 -18.5q23 0 64 12l8 -117q-66 -32 -145 -32q-74 0 -114 34.5t-48 89.5 q-129 -129 -338 -129q-76 0 -134 20t-90.5 49.5t-53 70t-27 74.5t-6.5 69zM213 1376q0 57 36 91t95 34q57 0 92 -34t35 -91q0 -59 -34.5 -93t-92.5 -34q-59 0 -95 34t-36 93zM307 289q0 -77 38.5 -122.5t137.5 -45.5q77 0 151 34.5t120 84.5v237q-44 6 -107 6 q-53 0 -92.5 -2.5t-89 -14t-81.5 -31.5t-54.5 -57t-22.5 -89zM643 1376q0 57 35 91t94 34t94 -34t35 -91q0 -59 -35 -93t-94 -34t-94 34t-35 93z" />
<glyph unicode="&#xe5;" horiz-adv-x="1116" d="M115 258q0 358 544 358q35 0 93 -4v103q0 109 -44 162t-165 53q-105 0 -155.5 -41.5t-68.5 -132.5l-163 30q25 148 122.5 218.5t280.5 70.5q198 0 287.5 -84t89.5 -278v-514q0 -45 12.5 -63.5t50.5 -18.5q23 0 64 12l8 -117q-66 -32 -145 -32q-74 0 -114 34.5t-48 89.5 q-129 -129 -338 -129q-76 0 -134 20t-90.5 49.5t-53 70t-27 74.5t-6.5 69zM307 289q0 -77 38.5 -122.5t137.5 -45.5q77 0 151 34.5t120 84.5v237q-44 6 -107 6q-53 0 -92.5 -2.5t-89 -14t-81.5 -31.5t-54.5 -57t-22.5 -89zM342 1372q0 101 61.5 156t153.5 55 q96 0 157.5 -51.5t61.5 -151.5q0 -97 -59 -151.5t-160 -54.5q-98 0 -156.5 52.5t-58.5 145.5zM455 1376q0 -48 26.5 -74t75.5 -26t74.5 28t25.5 76q0 49 -26 74t-74 25q-45 0 -73.5 -27t-28.5 -76z" />
<glyph unicode="&#xe6;" horiz-adv-x="1759" d="M115 258q0 351 514 358q84 0 123 -2v101q0 108 -45.5 161.5t-165.5 53.5q-104 0 -155.5 -42t-66.5 -132l-163 30q25 149 122.5 219t276.5 70q132 0 207 -43t112 -135q132 178 371 178q105 0 185.5 -36.5t128.5 -101.5t72 -149t24 -186q0 -72 -8 -127h-709 q2 -101 24.5 -170t64 -106t92 -52.5t118.5 -15.5q106 0 162.5 46.5t79.5 139.5l166 -36q-31 -150 -144 -228t-276 -78q-258 0 -373 160q-83 -81 -192.5 -120.5t-217.5 -39.5q-80 0 -141.5 20t-95.5 49.5t-55.5 70t-28 74.5t-6.5 69zM307 287q0 -76 38.5 -121t139.5 -45 q85 0 165 35t138 98q-33 92 -36 229q-37 2 -121 2q-69 -1 -122.5 -9.5t-101.5 -29t-74 -61t-26 -98.5zM940 616h522q3 148 -56.5 228t-182.5 80q-113 0 -193.5 -78.5t-89.5 -229.5z" />
<glyph unicode="&#xe7;" horiz-adv-x="1101" d="M100 516q0 272 132.5 415.5t371.5 143.5q181 0 288.5 -93.5t117.5 -272.5l-179 -25q-12 119 -69 177.5t-166 58.5q-61 0 -112 -18t-95 -59.5t-69 -118.5t-25 -185q0 -114 22 -195t63 -126.5t92.5 -66t117.5 -20.5q223 0 262 225l164 -34q-24 -160 -126.5 -246t-252.5 -99 l-8 -67q162 -31 162 -180q0 -93 -64 -149t-162 -56q-91 0 -166 41l35 104q62 -30 115 -30q46 0 72 25.5t26 66.5q0 51 -34.5 72.5t-114.5 23.5l20 152q-145 12 -240.5 85t-136.5 185.5t-41 265.5z" />
<glyph unicode="&#xe8;" horiz-adv-x="1118" d="M100 524q0 113 26 205t71 155.5t108 107t136 63.5t155 20q108 0 189.5 -34t130.5 -96t73.5 -143t24.5 -181q0 -73 -8 -138h-709q6 -190 82.5 -271t212.5 -81q109 0 167 46.5t81 139.5l164 -36q-31 -150 -143 -228t-275 -78q-109 0 -193.5 29.5t-139 80t-89.5 122 t-49.5 149t-14.5 168.5zM299 631h522q0 293 -237 293q-54 0 -102 -17t-88.5 -51t-65.5 -91.5t-29 -133.5zM344 1530h223l199 -334l-135 -25z" />
<glyph unicode="&#xe9;" horiz-adv-x="1118" d="M100 524q0 113 26 205t71 155.5t108 107t136 63.5t155 20q108 0 189.5 -34t130.5 -96t73.5 -143t24.5 -181q0 -73 -8 -138h-709q6 -190 82.5 -271t212.5 -81q109 0 167 46.5t81 139.5l164 -36q-31 -150 -143 -228t-275 -78q-109 0 -193.5 29.5t-139 80t-89.5 122 t-49.5 149t-14.5 168.5zM299 631h522q0 293 -237 293q-54 0 -102 -17t-88.5 -51t-65.5 -91.5t-29 -133.5zM418 1196l198 334h224l-287 -359z" />
<glyph unicode="&#xea;" horiz-adv-x="1118" d="M100 524q0 113 26 205t71 155.5t108 107t136 63.5t155 20q108 0 189.5 -34t130.5 -96t73.5 -143t24.5 -181q0 -73 -8 -138h-709q6 -190 82.5 -271t212.5 -81q109 0 167 46.5t81 139.5l164 -36q-31 -150 -143 -228t-275 -78q-109 0 -193.5 29.5t-139 80t-89.5 122 t-49.5 149t-14.5 168.5zM268 1194l230 338h182l231 -338l-141 -12l-182 231l-180 -233zM299 631h522q0 293 -237 293q-54 0 -102 -17t-88.5 -51t-65.5 -91.5t-29 -133.5z" />
<glyph unicode="&#xeb;" horiz-adv-x="1118" d="M100 524q0 113 26 205t71 155.5t108 107t136 63.5t155 20q108 0 189.5 -34t130.5 -96t73.5 -143t24.5 -181q0 -73 -8 -138h-709q6 -190 82.5 -271t212.5 -81q109 0 167 46.5t81 139.5l164 -36q-31 -150 -143 -228t-275 -78q-109 0 -193.5 29.5t-139 80t-89.5 122 t-49.5 149t-14.5 168.5zM244 1376q0 57 36 91t95 34q57 0 92 -34t35 -91q0 -59 -34.5 -93t-92.5 -34q-59 0 -95 34t-36 93zM299 631h522q0 293 -237 293q-54 0 -102 -17t-88.5 -51t-65.5 -91.5t-29 -133.5zM674 1376q0 57 35 91t94 34t94 -34t35 -91q0 -59 -35 -93t-94 -34 t-94 34t-35 93z" />
<glyph unicode="&#xec;" horiz-adv-x="509" d="M14 1530h224l198 -334l-135 -25zM166 0v1053h186v-1053h-186z" />
<glyph unicode="&#xed;" horiz-adv-x="509" d="M88 1196l199 334h223l-287 -359zM166 0v1053h186v-1053h-186z" />
<glyph unicode="&#xee;" horiz-adv-x="509" d="M-61 1194l229 338h182l232 -338l-142 -12l-182 231l-180 -233zM166 0v1053h186v-1053h-186z" />
<glyph unicode="&#xef;" horiz-adv-x="509" d="M-86 1376q0 57 36 91t95 34q57 0 92 -34t35 -91q0 -59 -34.5 -93t-92.5 -34q-59 0 -95 34t-36 93zM166 0v1053h186v-1053h-186zM344 1376q0 57 35 91t94 34t94 -34t35 -91q0 -59 -35 -93t-94 -34t-94 34t-35 93z" />
<glyph unicode="&#xf0;" horiz-adv-x="1177" d="M100 512q0 107 30 200t87.5 164t148.5 111.5t205 40.5q170 0 291 -80q-62 189 -174 301l-196 -112l-76 123l149 83q-118 67 -264 87l61 141q218 -30 367 -133l213 121l74 -125l-170 -97q231 -245 231 -692q0 -83 -10 -159.5t-31.5 -154t-60.5 -140t-93 -112t-132.5 -77 t-174.5 -27.5q-475 0 -475 537zM293 516q0 -86 13 -152.5t44 -123t88.5 -87t139.5 -30.5q86 0 149 41t98 113.5t51.5 160t16.5 193.5q0 67 -6 135q-40 47 -122 81t-167 34q-151 0 -228 -94t-77 -271z" />
<glyph unicode="&#xf1;" horiz-adv-x="1191" d="M166 0v1053h164l10 -125q183 147 379 147q167 0 245 -89.5t78 -270.5v-715h-186v686q0 112 -46.5 168.5t-150.5 56.5q-82 0 -169 -40.5t-138 -86.5v-784h-186zM272 1212q-14 122 38.5 188t135.5 66q55 0 113 -23.5t109 -47t88 -23.5q41 0 59.5 21.5t18.5 83.5l112 -4 q14 -121 -35 -185.5t-137 -64.5q-55 0 -114 23.5t-111 47t-90 23.5q-79 0 -72 -111z" />
<glyph unicode="&#xf2;" horiz-adv-x="1183" d="M100 522q0 259 132 406t380 147q123 0 214.5 -38t147 -109t82.5 -166t27 -215q0 -271 -120.5 -421.5t-376.5 -150.5q-107 0 -190.5 27.5t-138.5 75.5t-90.5 117.5t-51 150t-15.5 176.5zM293 530q0 -208 74.5 -306.5t228.5 -98.5q143 0 218 97t75 313q0 210 -71 298.5 t-214 88.5q-147 0 -229 -95t-82 -297zM360 1530h224l198 -334l-135 -25z" />
<glyph unicode="&#xf3;" horiz-adv-x="1183" d="M100 522q0 259 132 406t380 147q123 0 214.5 -38t147 -109t82.5 -166t27 -215q0 -271 -120.5 -421.5t-376.5 -150.5q-107 0 -190.5 27.5t-138.5 75.5t-90.5 117.5t-51 150t-15.5 176.5zM293 530q0 -208 74.5 -306.5t228.5 -98.5q143 0 218 97t75 313q0 210 -71 298.5 t-214 88.5q-147 0 -229 -95t-82 -297zM434 1196l199 334h223l-287 -359z" />
<glyph unicode="&#xf4;" horiz-adv-x="1183" d="M100 522q0 259 132 406t380 147q123 0 214.5 -38t147 -109t82.5 -166t27 -215q0 -271 -120.5 -421.5t-376.5 -150.5q-107 0 -190.5 27.5t-138.5 75.5t-90.5 117.5t-51 150t-15.5 176.5zM285 1194l229 338h182l232 -338l-142 -12l-182 231l-180 -233zM293 530 q0 -208 74.5 -306.5t228.5 -98.5q143 0 218 97t75 313q0 210 -71 298.5t-214 88.5q-147 0 -229 -95t-82 -297z" />
<glyph unicode="&#xf5;" horiz-adv-x="1183" d="M100 522q0 259 132 406t380 147q123 0 214.5 -38t147 -109t82.5 -166t27 -215q0 -271 -120.5 -421.5t-376.5 -150.5q-107 0 -190.5 27.5t-138.5 75.5t-90.5 117.5t-51 150t-15.5 176.5zM266 1212q-14 122 38.5 188t135.5 66q55 0 113 -23.5t109 -47t88 -23.5q41 0 59 21 t18 84l113 -4q14 -121 -35 -185.5t-137 -64.5q-55 0 -114 23.5t-111 47t-90 23.5q-79 0 -72 -111zM293 530q0 -208 74.5 -306.5t228.5 -98.5q143 0 218 97t75 313q0 210 -71 298.5t-214 88.5q-147 0 -229 -95t-82 -297z" />
<glyph unicode="&#xf6;" horiz-adv-x="1183" d="M100 522q0 259 132 406t380 147q123 0 214.5 -38t147 -109t82.5 -166t27 -215q0 -271 -120.5 -421.5t-376.5 -150.5q-107 0 -190.5 27.5t-138.5 75.5t-90.5 117.5t-51 150t-15.5 176.5zM260 1376q0 57 36 91t95 34q57 0 92 -34t35 -91q0 -59 -34.5 -93t-92.5 -34 q-59 0 -95 34t-36 93zM293 530q0 -208 74.5 -306.5t228.5 -98.5q143 0 218 97t75 313q0 210 -71 298.5t-214 88.5q-147 0 -229 -95t-82 -297zM690 1376q0 57 35 91t94 34t94 -34t35 -91q0 -59 -35 -93t-94 -34t-94 34t-35 93z" />
<glyph unicode="&#xf7;" horiz-adv-x="1167" d="M197 571v172h772v-172h-772zM440 340q0 60 34 93.5t97 33.5q64 0 97.5 -33t33.5 -94q0 -127 -131 -127q-63 0 -97 32t-34 95zM440 979q0 60 34 93.5t97 33.5q64 0 97.5 -33t33.5 -94q0 -129 -131 -129q-63 0 -97 33t-34 96z" />
<glyph unicode="&#xf8;" horiz-adv-x="1183" d="M100 522q0 259 132 406t380 147q66 0 125 -12l62 137h174l-86 -196q196 -128 196 -457q0 -271 -120.5 -421.5t-376.5 -150.5q-80 0 -148 15l-59 -137h-176l88 200q-191 129 -191 469zM293 530q0 -204 74 -307l305 692q-35 7 -68 7q-147 0 -229 -95t-82 -297zM504 135 q34 -10 92 -10q143 0 218 97t75 313q0 211 -76 303z" />
<glyph unicode="&#xf9;" horiz-adv-x="1189" d="M162 338v715h186v-686q0 -117 40 -171.5t151 -54.5q82 0 168.5 41t136.5 88v783h186v-1053h-162l-12 121q-171 -141 -373 -141q-165 0 -243 89.5t-78 268.5zM356 1530h224l198 -334l-135 -25z" />
<glyph unicode="&#xfa;" horiz-adv-x="1189" d="M162 338v715h186v-686q0 -117 40 -171.5t151 -54.5q82 0 168.5 41t136.5 88v783h186v-1053h-162l-12 121q-171 -141 -373 -141q-165 0 -243 89.5t-78 268.5zM430 1196l199 334h223l-287 -359z" />
<glyph unicode="&#xfb;" horiz-adv-x="1189" d="M162 338v715h186v-686q0 -117 40 -171.5t151 -54.5q82 0 168.5 41t136.5 88v783h186v-1053h-162l-12 121q-171 -141 -373 -141q-165 0 -243 89.5t-78 268.5zM281 1194l229 338h182l232 -338l-142 -12l-182 231l-180 -233z" />
<glyph unicode="&#xfc;" horiz-adv-x="1189" d="M162 338v715h186v-686q0 -117 40 -171.5t151 -54.5q82 0 168.5 41t136.5 88v783h186v-1053h-162l-12 121q-171 -141 -373 -141q-165 0 -243 89.5t-78 268.5zM256 1376q0 57 36 91t95 34q57 0 92 -34t35 -91q0 -59 -34.5 -93t-92.5 -34q-59 0 -95 34t-36 93zM686 1376 q0 57 35 91t94 34t94 -34t35 -91q0 -59 -35 -93t-94 -34t-94 34t-35 93z" />
<glyph unicode="&#xfd;" horiz-adv-x="993" d="M-20 -418l22 146q92 -33 168 -33q61 0 108 37.5t80 126.5l50 129l-392 1065h207l279 -836h2l289 836h190l-455 -1207q-63 -166 -142 -234.5t-204 -68.5q-113 0 -202 39zM332 1196l198 334h224l-287 -359z" />
<glyph unicode="&#xfe;" horiz-adv-x="1189" d="M166 -434v1980h184v-610q156 139 357 139q84 0 151.5 -28t120.5 -88t82 -163.5t29 -244.5q0 -149 -35 -262t-96.5 -180.5t-140.5 -100.5t-173 -33q-163 0 -297 107h-2v-516h-180zM352 242q146 -109 271 -109q274 0 274 420q0 188 -60 276.5t-190 88.5q-80 0 -160.5 -40 t-134.5 -92v-544z" />
<glyph unicode="&#xff;" horiz-adv-x="993" d="M-20 -418l22 146q92 -33 168 -33q61 0 108 37.5t80 126.5l50 129l-392 1065h207l279 -836h2l289 836h190l-455 -1207q-63 -166 -142 -234.5t-204 -68.5q-113 0 -202 39zM158 1376q0 57 36 91t95 34q57 0 92 -34t35 -91q0 -59 -34.5 -93t-92.5 -34q-59 0 -95 34t-36 93z M588 1376q0 57 35 91t94 34t94 -34t35 -91q0 -59 -35 -93t-94 -34t-94 34t-35 93z" />
<glyph unicode="&#x152;" horiz-adv-x="2230" d="M102 741q0 223 78.5 395t237 272.5t377.5 100.5q317 0 477 -233v207h846v-154h-678v-500h635v-163h-635v-502h704v-164h-872v227q-77 -122 -205.5 -187t-298.5 -65q-168 0 -297 57t-209 160t-120 241.5t-40 307.5zM299 743q0 -292 129 -447t350 -155q106 0 193 36 t152 108.5t100.5 189.5t36.5 270q0 292 -125 445t-342 153q-222 0 -358 -156t-136 -444z" />
<glyph unicode="&#x153;" horiz-adv-x="1894" d="M100 520q0 260 131 407.5t375 147.5q272 0 381 -213q59 104 160 157.5t231 53.5q106 0 186.5 -34t129 -96.5t72.5 -144t24 -182.5q0 -78 -8 -133h-709q3 -100 26 -170t64.5 -109t92.5 -56t118 -17q102 0 161 46.5t81 139.5l164 -36q-31 -148 -143 -227t-269 -79 q-289 0 -391 213q-112 -213 -395 -213q-131 0 -226.5 41t-150 116.5t-80 171t-25.5 216.5zM293 528q0 -206 74.5 -304.5t228.5 -98.5q143 0 218 96.5t75 313.5q0 212 -70.5 299.5t-214.5 87.5q-147 0 -229 -95t-82 -299zM1075 631h522q0 293 -239 293q-54 0 -102.5 -17.5 t-88.5 -52t-65 -92.5t-27 -131z" />
<glyph unicode="&#x178;" horiz-adv-x="1159" d="M-10 1483h213l389 -723h4l379 723h194l-485 -905v-578h-188v573zM248 1722q0 58 36 92.5t95 34.5q57 0 92 -34.5t35 -92.5t-34.5 -91.5t-92.5 -33.5q-59 0 -95 33.5t-36 91.5zM678 1722q0 58 35 92.5t94 34.5t94 -34.5t35 -92.5t-35 -91.5t-94 -33.5t-94 33.5t-35 91.5z " />
<glyph unicode="&#x2c6;" horiz-adv-x="1024" d="M193 1194l229 338h182l232 -338l-142 -12l-182 231l-180 -233z" />
<glyph unicode="&#x2dc;" horiz-adv-x="1024" d="M174 1212q-14 122 38.5 188t135.5 66q55 0 112.5 -23.5t108.5 -47t88 -23.5q41 0 59.5 21.5t18.5 83.5l113 -4q14 -121 -35 -185.5t-137 -64.5q-55 0 -114 23.5t-111.5 47t-90.5 23.5q-37 0 -56 -24.5t-15 -86.5z" />
<glyph unicode="&#x2000;" horiz-adv-x="935" />
<glyph unicode="&#x2001;" horiz-adv-x="1870" />
<glyph unicode="&#x2002;" horiz-adv-x="935" />
<glyph unicode="&#x2003;" horiz-adv-x="1870" />
<glyph unicode="&#x2004;" horiz-adv-x="623" />
<glyph unicode="&#x2005;" horiz-adv-x="467" />
<glyph unicode="&#x2006;" horiz-adv-x="311" />
<glyph unicode="&#x2007;" horiz-adv-x="311" />
<glyph unicode="&#x2008;" horiz-adv-x="233" />
<glyph unicode="&#x2009;" horiz-adv-x="374" />
<glyph unicode="&#x200a;" horiz-adv-x="103" />
<glyph unicode="&#x2010;" horiz-adv-x="647" d="M41 514v178h555v-178h-555z" />
<glyph unicode="&#x2011;" horiz-adv-x="647" d="M41 514v178h555v-178h-555z" />
<glyph unicode="&#x2012;" horiz-adv-x="647" d="M41 514v178h555v-178h-555z" />
<glyph unicode="&#x2013;" horiz-adv-x="1024" d="M0 502v149h1022v-149h-1022z" />
<glyph unicode="&#x2014;" horiz-adv-x="2048" d="M0 502v149h2046v-149h-2046z" />
<glyph unicode="&#x2018;" horiz-adv-x="387" d="M66 1133l167 464l142 -18l-109 -446h-200z" />
<glyph unicode="&#x2019;" horiz-adv-x="387" d="M49 1124l109 447h200l-168 -465z" />
<glyph unicode="&#x201a;" horiz-adv-x="368" d="M23 -266l108 446h201l-168 -465z" />
<glyph unicode="&#x201c;" horiz-adv-x="702" d="M66 1133l167 464l142 -18l-109 -446h-200zM383 1133l168 464l141 -18l-108 -446h-201z" />
<glyph unicode="&#x201d;" horiz-adv-x="702" d="M49 1124l109 447h200l-168 -465zM365 1124l108 447h201l-168 -465z" />
<glyph unicode="&#x201e;" horiz-adv-x="686" d="M23 -266l108 446h201l-168 -465zM338 -266l108 446h201l-168 -465z" />
<glyph unicode="&#x2022;" horiz-adv-x="802" d="M121 573q0 136 72.5 205.5t207.5 69.5q137 0 209 -69t72 -206t-72.5 -206.5t-208.5 -69.5q-135 0 -207.5 70t-72.5 206z" />
<glyph unicode="&#x2026;" horiz-adv-x="1306" d="M92 113q0 67 35.5 102t103.5 35t104 -35t36 -102t-36 -102.5t-104 -35.5q-139 0 -139 138zM516 113q0 67 35.5 102t103.5 35t104 -35t36 -102t-36 -102.5t-104 -35.5q-139 0 -139 138zM936 113q0 67 35.5 102t103.5 35t103.5 -35t35.5 -102t-35.5 -102.5t-103.5 -35.5 q-139 0 -139 138z" />
<glyph unicode="&#x202f;" horiz-adv-x="374" />
<glyph unicode="&#x2039;" horiz-adv-x="569" d="M117 530l182 306h168l-172 -299l168 -326h-168z" />
<glyph unicode="&#x203a;" horiz-adv-x="569" d="M100 211l172 307l-172 318h168l181 -316l-181 -309h-168z" />
<glyph unicode="&#x205f;" horiz-adv-x="467" />
<glyph unicode="&#x20ac;" horiz-adv-x="1253" d="M23 512l22 139h131v68q0 63 2 94h-112l22 139h105q22 148 75.5 257.5t130 174t166.5 95t195 30.5q97 0 175 -25.5t138 -78t96 -138.5t43 -202l-170 -16q-19 162 -82 229.5t-204 67.5q-170 0 -259.5 -102t-117.5 -292h461l-25 -139h-450v-86q0 -51 2 -76h430l-25 -139 h-395q28 -190 114.5 -282.5t245.5 -92.5q133 0 205 65t102 206l160 -37q-12 -87 -46 -156t-80 -113t-105.5 -73.5t-120.5 -41.5t-127 -12q-469 0 -537 537h-165z" />
<glyph unicode="&#x2122;" horiz-adv-x="1703" d="M53 1372v111h652v-111h-265v-659h-123v659h-264zM815 713v770h146l235 -606l242 606h133v-770h-113v547l-219 -547h-94l-215 549v-549h-115z" />
<glyph unicode="&#x25fc;" horiz-adv-x="1054" d="M0 0v1055h1055v-1055h-1055z" />
</font>
</defs>
</svg>
